# xmcd CD database file
#
# Track frame offsets:
#	180
#	11637
#	23214
#	36184
#	48856
#	62660
#	75756
#	85637
#	95473
#	110058
#	122557
#	135447
#	148272
#	161198
#	173620
#	184533
#	198352
#	210830
#	222841
#	237106
#	251807
#	265412
#	280149
#
# Disc length: 3922 seconds
#
# Revision: 0
# Processed by: cddbd v1.5.2PL0 Copyright (c) Steve Scherf et al.
# Submitted via: CDex 1.70beta2
#
DISCID=350f5017
DTITLE=Billie Holiday - Billie Holiday Volume 6
DYEAR=1938
DGENRE=Jazz
TTITLE0=Havin' Myself A Time (L. Robin, R. Rainger)
TTITLE1=Havin' Myself A Time
TTITLE2=Says My Heart (B. Lane, F. Loesser)
TTITLE3=Says My Heart
TTITLE4=I Wish I Had You (C. Thornhill, Green, A. Stillman)
TTITLE5=I Wish I Had You
TTITLE6=I'm Gonna Lock My Heart [And Throw Away The Key] (J. Eaton, T. Shand)
TTITLE7=I'm Gonna Lock My Heart [And Throw Away The Key]
TTITLE8=Any Old Time (A. Shaw)
TTITLE9=The Very Thought Of You (R. Noble)
TTITLE10=I Can't Get Started [With You] (V. Duke, I. Gershwin)
TTITLE11=I Can't Get Started [With You]
TTITLE12=I've Got A Date With A Dream (H. Revel, M. Gordon)
TTITLE13=I've Got A Date With A Dream
TTITLE14=You Can't Be Mine (J. C. Johnson, C. Webb)
TTITLE15=Everybody's Laughing (B. Oakland, S. Lerner)
TTITLE16=Here It IS To-Morrow Again (P. Gibbons, R. Ringwald)
TTITLE17=Say It With A Kiss (H. Warren, J. Mercer)
TTITLE18=April In My Heart (H. Carmichael, H. Meinard)
TTITLE19=April In My Heart
TTITLE20=I'll Never Fail You (V. Mizzy, I. Tailor)
TTITLE21=They Say (P. Mann, S. Weiss, E. Heyman)
TTITLE22=They Say
EXTD=YEAR: 1938
EXTT0=
EXTT1=
EXTT2=
EXTT3=
EXTT4=
EXTT5=
EXTT6=
EXTT7=
EXTT8=
EXTT9=
EXTT10=
EXTT11=
EXTT12=
EXTT13=
EXTT14=
EXTT15=
EXTT16=
EXTT17=
EXTT18=
EXTT19=
EXTT20=
EXTT21=
EXTT22=
PLAYORDER=
